<svg width="30" height="30" viewBox="0 0 30 30" fill="none" xmlns="http://www.w3.org/2000/svg">
<path d="M0 15C0 23.2843 6.71573 30 15 30C23.2843 30 30 23.2843 30 15C30 6.71573 23.2843 0 15 0C6.71573 0 0 6.71573 0 15Z" fill="#1877F2"/>
<path d="M22.5 15C22.5 10.875 19.125 7.5 15 7.5C10.875 7.5 7.5 10.875 7.5 15C7.5 18.75 10.2187 21.8438 13.7812 22.4062V17.1562H11.9062V15H13.7812V13.3125C13.7812 11.4375 14.9063 10.4063 16.5938 10.4063C17.4375 10.4063 18.2812 10.5938 18.2812 10.5938V12.4688H17.3438C16.4062 12.4688 16.125 13.0312 16.125 13.5938V15H18.1875L17.8125 17.1562H16.0312V22.5C19.7812 21.9375 22.5 18.75 22.5 15Z" fill="white"/>
</svg>
