<svg width="30" height="30" viewBox="0 0 30 30" fill="none" xmlns="http://www.w3.org/2000/svg">
<path d="M0 15C0 23.2843 6.71573 30 15 30C23.2843 30 30 23.2843 30 15C30 6.71573 23.2843 0 15 0C6.71573 0 0 6.71573 0 15Z" fill="black"/>
<g clip-path="url(#clip0_155_1798)">
<path d="M16.643 13.5852L22.0493 7H20.7682L16.0738 12.7178L12.3245 7H8L13.6698 15.6464L8 22.552H9.28121L14.2386 16.5138L18.1982 22.552H22.5227L16.6426 13.5852H16.643ZM14.8882 15.7226L14.3137 14.8616L9.74285 8.01063H11.7107L15.3994 13.5396L15.9739 14.4006L20.7688 21.5873H18.8009L14.8882 15.7229V15.7226Z" fill="white"/>
</g>
<defs>
<clipPath id="clip0_155_1798">
<rect width="14.5227" height="15.56" fill="white" transform="translate(8 7)"/>
</clipPath>
</defs>
</svg>
